<?xml version="1.0" standalone="no"?>
<!DOCTYPE svg PUBLIC "-//W3C//DTD SVG 20010904//EN"
 "http://www.w3.org/TR/2001/REC-SVG-20010904/DTD/svg10.dtd">
<svg version="1.0" xmlns="http://www.w3.org/2000/svg"
 width="512.000000pt" height="512.000000pt" viewBox="0 0 512.000000 512.000000"
 preserveAspectRatio="xMidYMid meet">
<metadata>
Created by potrace 1.14, written by Peter Selinger 2001-2017
</metadata>
<g transform="translate(0.000000,512.000000) scale(0.100000,-0.100000)"
fill="#000000" stroke="none">
<path d="M2425 5003 c-516 -32 -999 -218 -1400 -537 -96 -77 -284 -264 -362
-361 -246 -305 -418 -666 -498 -1045 -14 -65 -44 -265 -45 -296 0 -6 26 2 58
17 115 54 364 122 499 136 59 6 63 5 92 -25 37 -36 41 -81 12 -129 -22 -36
-21 -35 -161 -63 -140 -28 -272 -66 -345 -100 l-60 -28 70 -32 c113 -53 452
-129 690 -155 28 -3 106 -12 175 -19 69 -8 171 -18 226 -22 l101 -7 -5 161
c-5 159 -5 160 18 167 45 14 141 77 216 141 149 126 301 193 489 215 202 24
429 -30 590 -141 22 -15 78 -62 125 -104 245 -220 490 -326 724 -314 162 9
290 68 427 196 l77 73 8 -68 c4 -37 4 -115 1 -174 -6 -105 -6 -106 16 -103
345 51 581 106 692 161 l49 25 -36 19 c-64 33 -189 71 -348 105 -138 29 -158
36 -177 61 -34 42 -31 97 8 135 28 29 34 30 87 25 132 -12 393 -82 505 -136
31 -15 57 -23 57 -17 0 6 -7 58 -14 116 -82 610 -393 1171 -867 1565 -465 388
-1097 596 -1694 558z m272 -355 c18 -18 33 -36 33 -42 0 -13 -61 -76 -74 -76
-13 0 -76 61 -76 74 0 13 61 76 74 76 6 0 25 -14 43 -32z m1108 -387 c24 -49
54 -76 108 -99 38 -16 34 -38 -13 -62 -47 -24 -85 -63 -102 -104 -23 -59 -37
-56 -73 15 -20 38 -37 56 -80 80 -30 17 -55 37 -55 45 0 7 22 25 49 39 49 25
82 60 101 109 15 39 37 32 65 -23z m-2408 -3 c6 -7 15 -74 22 -149 20 -235 51
-312 146 -355 62 -28 164 -50 285 -59 l85 -6 75 66 c196 172 439 297 691 355
94 21 98 22 180 5 198 -40 430 -140 594 -256 112 -79 301 -267 378 -375 31
-45 57 -84 57 -87 0 -2 -66 -67 -147 -142 -117 -109 -162 -145 -217 -171 -218
-103 -477 -33 -733 198 -40 36 -104 82 -142 102 -234 123 -541 93 -732 -71
-81 -69 -163 -119 -232 -142 -84 -27 -127 -35 -127 -23 0 18 116 237 158 299
23 34 64 88 90 120 l49 58 -41 -3 c-95 -6 -203 -25 -251 -43 -116 -43 -146
-116 -182 -444 -7 -61 -11 -70 -30 -73 -24 -4 -23 -9 -42 198 -27 290 -82 339
-416 371 -121 11 -162 26 -138 50 6 6 59 15 119 20 271 22 343 50 394 150 24
45 47 164 59 296 5 56 12 107 16 113 8 14 20 13 32 -2z m3008 -1108 l-41 -40
-39 40 -39 40 39 40 39 40 41 -40 40 -40 -40 -40z"/>
<path d="M120 2367 c1 -38 28 -229 45 -307 79 -373 249 -734 489 -1035 77 -96
264 -284 361 -362 359 -289 802 -477 1260 -534 129 -16 441 -16 570 0 548 68
1055 315 1443 701 379 379 626 877 698 1410 22 165 27 155 -59 115 -131 -61
-424 -130 -692 -164 -141 -18 -132 -14 -150 -80 -17 -58 -18 -59 -296 -317
-154 -143 -305 -280 -335 -306 -277 -232 -603 -172 -945 173 -122 124 -205
185 -298 220 -157 59 -340 63 -495 12 l-88 -30 -28 61 c-15 34 -37 91 -49 128
-26 77 -2 69 -241 88 -166 14 -509 61 -690 94 -173 32 -333 78 -427 121 -71
33 -73 33 -73 12z m4267 -569 c18 -18 33 -36 33 -42 0 -13 -61 -76 -74 -76
-13 0 -76 61 -76 74 0 13 61 76 74 76 6 0 25 -14 43 -32z m-3485 -145 c23 -54
50 -84 99 -108 55 -28 62 -50 23 -65 -49 -19 -84 -52 -109 -101 -14 -27 -32
-49 -39 -49 -8 0 -28 25 -45 55 -24 43 -42 60 -80 80 -75 38 -75 45 2 84 38
19 56 37 79 78 33 59 53 66 70 26z m3186 -286 c22 -40 42 -59 81 -80 28 -16
51 -35 51 -42 0 -8 -21 -25 -47 -38 -36 -17 -56 -37 -81 -78 -18 -30 -39 -54
-48 -54 -8 0 -27 22 -42 50 -20 38 -39 57 -77 77 -28 15 -50 34 -50 42 0 9 24
30 54 48 41 25 61 45 78 81 13 26 30 47 38 47 7 0 26 -24 43 -53z m-2711 -349
c18 -18 33 -36 33 -42 0 -13 -61 -76 -74 -76 -13 0 -76 61 -76 74 0 13 61 76
74 76 6 0 25 -14 43 -32z m770 -430 c18 -18 33 -36 33 -42 0 -13 -61 -76 -74
-76 -13 0 -76 61 -76 74 0 13 61 76 74 76 6 0 25 -14 43 -32z"/>
</g>
</svg>
